<svg xmlns="http://www.w3.org/2000/svg" version="1.1" xmlns:xlink="http://www.w3.org/1999/xlink" xmlns:svgjs="http://svgjs.dev/svgjs" width="1500" height="1500" viewBox="0 0 1500 1500"><rect width="1500" height="1500" fill="#ffffff"></rect><g transform="matrix(0.6666666666666666,0,0,0.6666666666666666,249.39393939393938,678.4410418754765)"><svg viewBox="0 0 396 56" data-background-color="#293040" preserveAspectRatio="xMidYMid meet" height="212" width="1500" xmlns="http://www.w3.org/2000/svg" xmlns:xlink="http://www.w3.org/1999/xlink"><g id="tight-bounds" transform="matrix(1,0,0,1,0.2400000000000091,0.35354944556596024)"><svg viewBox="0 0 395.52 55.292901108868094" height="55.292901108868094" width="395.52"><g><svg viewBox="0 0 439.80603644072056 61.484" height="55.292901108868094" width="395.52"><g><svg viewBox="0 0 439.80603644072056 61.484" height="61.484" width="439.80603644072056"><g id="textblocktransform"><svg viewBox="0 0 439.80603644072056 61.484" height="61.484" width="439.80603644072056" id="textblock"><g><svg viewBox="0 0 439.80603644072056 61.484" height="61.484" width="439.80603644072056"><g><svg><g></g><g></g></svg></g><g><svg><g><svg></svg></g><g></g></svg></g><g id="text-0"><svg viewBox="0 0 439.80603644072056 61.484" height="61.484" width="439.80603644072056"><g transform="matrix(1,0,0,1,0,11.767)"><svg width="121.45000000000003" viewBox="0.15 -36.5 121.44 37.95" height="37.95" data-palette-color="#d5b263"><path d="M14.5-28.65L14.5-28.65Q10.55-23.7 8.8-18.75L8.8-18.75 8.85-18.75Q15.8-18.75 16.82-18.73 17.85-18.7 17.95-18.8 18.05-18.9 18.1-19.05L18.1-19.05Q17.25-25.2 16.75-27.43 16.25-29.65 15.75-29.65 15.25-29.65 14.5-28.65ZM10.05-5.1L10.05-5.1 11.15-5.3Q11.65-5.3 11.65-4.75L11.65-4.75Q11.65-3 10.95-1.8 10.25-0.6 9.2-0.1L9.2-0.1Q7.5 0.75 6.3 0.75L6.3 0.75Q4 0.75 2.85-0.98 1.7-2.7 1.7-6.18 1.7-9.65 3.6-15.2L3.6-15.2 0.7-15.2Q0.15-15.2 0.15-15.75 0.15-16.3 1-17.53 1.85-18.75 2.8-18.75L2.8-18.75 5.05-18.75Q8.6-26.65 13.4-32.4L13.4-32.4Q14.65-33.9 16.48-35.2 18.3-36.5 19.3-36.5 20.3-36.5 20.8-35.6L20.8-35.6Q22.1-33.5 23.85-20.25L23.85-20.25Q24.45-14.55 25.93-8.47 27.4-2.4 28.65-1.4L28.65-1.4Q28.95-1.2 28.95-0.9L28.95-0.9Q28.95-0.15 26.83 0.5 24.7 1.15 23.58 1.15 22.45 1.15 21.85 0.88 21.25 0.6 21.1 0.3L21.1 0.3Q20.2-1.65 19.3-9L19.3-9 19-11.35Q18.8-13.7 18.6-14.9L18.6-14.9 18.25-15.15 7.8-15.2Q7.2-12.65 7.2-10.75 7.2-8.85 7.33-7.98 7.45-7.1 8.15-6.1 8.85-5.1 10.05-5.1ZM47.85-22.25L47.85-22.25Q46.95-16.85 46.95-8.5L46.95-8.5Q46.95-2.35 47.45-0.4L47.45-0.4 47.65 0.25Q47.65 0.9 46.55 0.9L46.55 0.9Q42.7 0.9 42.15-1.25L42.15-1.25Q42.1-1.5 41.92-1.5 41.75-1.5 41.6-1.3L41.6-1.3Q40.05 0.75 36.8 0.75L36.8 0.75Q35 0.75 33.05-0.15L33.05-0.15Q31.85-0.7 31.1-2.08 30.35-3.45 30.35-5.45L30.35-5.45 31.1-16.4Q31.1-19.85 30.4-21.3L30.4-21.3Q30.15-21.85 30.15-22L30.15-22Q30.15-22.3 30.4-22.4L30.4-22.4Q31.2-22.65 32.45-22.65L32.45-22.65Q37.3-22.65 37.3-18.65L37.3-18.65Q37.3-17.4 36.27-12.95 35.25-8.5 35.25-6.63 35.25-4.75 36.07-3.75 36.9-2.75 38.37-2.75 39.85-2.75 40.7-3.8 41.55-4.85 41.7-5.9L41.7-5.9 41.85-6.95Q42.05-8.7 42.05-13.1 42.05-17.5 41.77-18.68 41.5-19.85 41.5-20.15L41.5-20.15Q41.5-21.4 43.5-22.13 45.5-22.85 47.1-22.85L47.1-22.85Q47.85-22.85 47.85-22.25ZM49.5-19.5L49.5-19.5 49.65-21.5Q49.7-21.95 50.35-21.95L50.35-21.95 52.1-21.95 51.9-25.95 51.9-26.15Q51.9-27.3 53.65-28.35 55.4-29.4 56.85-29.4L56.85-29.4Q57.3-29.4 57.3-29L57.3-29 57.3-28.95Q57.1-27.6 56.9-22L56.9-22Q59.1-22 59.7-22.1 60.3-22.2 60.35-22.2L60.35-22.2Q60.7-22.2 60.7-21.6 60.7-21 60.15-20.08 59.6-19.15 58.95-19.1L58.95-19.1 56.85-19.1Q56.8-17.4 56.8-13.38 56.8-9.35 56.87-6.75 56.95-4.15 57.05-2.83 57.15-1.5 57.27-0.7 57.4 0.1 57.47 0.45 57.55 0.8 57.55 0.9L57.55 0.9Q57.55 1.4 56.9 1.45L56.9 1.45Q54.95 1.45 53.02 0.9 51.1 0.35 51.1-1L51.1-1Q52.15-9.4 52.15-19.05L52.15-19.05Q50.8-19.05 50.1-18.95L50.1-18.95 50.05-18.95Q49.6-18.95 49.5-19.5ZM67.89-26.85L67.89-26.85 67.84-22Q67.84-21.7 68.04-21.7 68.24-21.7 68.44-21.85L68.44-21.85Q69.69-22.7 72.39-22.7L72.39-22.7Q76.94-22.7 78.69-19.6L78.69-19.6Q79.34-18.45 79.34-16.55 79.34-14.65 79.12-11.3 78.89-7.95 78.89-6.55L78.89-6.55Q78.89-1.65 80.29-0.05L80.29-0.05Q80.54 0.2 80.54 0.45L80.54 0.45Q80.54 0.95 78.39 0.95L78.39 0.95Q72.59 0.95 72.59-4.45L72.59-4.45Q72.59-6.55 73.59-10.35 74.59-14.15 74.59-15.95 74.59-17.75 73.74-18.73 72.89-19.7 71.39-19.7 69.89-19.7 69.02-19.05 68.14-18.4 67.94-17.7L67.94-17.7 67.79-17.05Q67.74-16.1 67.74-11 67.74-5.9 67.99-4.38 68.24-2.85 68.24-2.65L68.24-2.65Q68.24-1.2 66.29-0.08 64.34 1.05 62.44 1.05L62.44 1.05Q61.74 1.05 61.74 0.25L61.74 0.25 61.84-0.7Q62.94-9.1 62.94-18.9L62.94-18.9Q62.94-22.7 62.64-26.6L62.64-26.6 62.59-27.7Q62.49-29.1 62.02-30.1 61.54-31.1 61.14-31.4L61.14-31.4 60.69-31.65Q60.34-31.85 60.34-32.1L60.34-32.1Q60.34-32.8 62.69-33.83 65.04-34.85 66.32-34.85 67.59-34.85 67.69-34.3L67.69-34.3Q67.89-31.75 67.89-26.85ZM99.04-22.15L99.04-22.15Q99.04-6.65 99.74-1.85L99.74-1.85Q99.74-0.65 97.44 0.13 95.14 0.9 93.64 0.9 92.14 0.9 92.14 0.45L92.14 0.45Q92.14 0.15 92.29-0.3L92.29-0.3Q93.24-2.4 93.24-17.2L93.24-17.2Q93.24-31.2 92.04-32.75L92.04-32.75 91.84-33.05Q91.54-33.3 91.54-33.68 91.54-34.05 92.09-34.3L92.09-34.3Q92.84-34.75 94.76-35.2 96.69-35.65 98.24-35.65 99.79-35.65 99.79-34.95L99.79-34.95 99.79-34.8Q99.19-29.6 99.04-22.15ZM103.29 0.35L103.29 0.35Q104.19-5.05 104.19-12.6 104.19-20.15 103.74-22.4L103.74-22.4Q103.74-23.05 105.24-23.05L105.24-23.05Q107.54-23.05 108.29-21.3L108.29-21.3Q108.34-21.15 108.54-21.15 108.74-21.15 108.84-21.25L108.84-21.25Q110.39-22.85 113.64-22.85 116.89-22.85 118.79-21.2 120.69-19.55 120.69-16.4L120.69-16.4Q120.69-14.5 120.36-11 120.04-7.5 120.04-5.8L120.04-5.8Q120.04-1.75 121.39 0.05L121.39 0.05Q121.59 0.3 121.59 0.55L121.59 0.55Q121.59 1.2 120.19 1.2L120.19 1.2Q113.99 1.2 113.99-4.3L113.99-4.3Q113.99-6.4 114.94-10.15 115.89-13.9 115.89-15.85L115.89-15.85Q115.89-19.85 112.59-19.85L112.59-19.85Q110.99-19.85 110.16-18.9 109.34-17.95 109.24-16.73 109.14-15.5 109.14-12.1L109.14-12.1Q109.14-6.9 109.49-3.05L109.49-3.05 109.59-1.95Q109.59-0.55 107.76 0.23 105.94 1 104.61 1 103.29 1 103.29 0.35Z" opacity="1" transform="matrix(1,0,0,1,0,0)" fill="#d5b263" class="undefined-tk-0"></path></svg></g><g><svg xmlns="http://www.w3.org/2000/svg" xmlns:xlink="http://www.w3.org/1999/xlink" version="1.1" x="135.96600000000004" y="0" viewBox="5.8 28.1 89.61531437146924 43.6" style="enable-background:new 0 0 100 100;" xml:space="preserve" height="61.484" width="126.37403644072053" class="icon-dxe-0" data-fill-palette-color="accent" id="dxe-0"><g fill="#c9ad8b" data-fill-palette-color="accent"><path d="M94.5 51H87C87.5 50.3 87.8 49.5 87.9 48.7 88.2 46.6 87.6 43.2 83.1 38.4 83.2 37.9 83.3 37.3 83.3 36.8 83.3 32 79.4 28.1 74.6 28.1 72.4 28.1 70.2 28.9 68.6 30.5 66.7 30.9 55.4 33.5 51.3 33.5 46.7 33.5 39.6 32.6 34 30.5 33.3 30 30.3 28.1 28.1 28.1 23.3 28.1 19.4 32 19.4 36.8 19.4 37.4 19.5 37.9 19.6 38.4 15.1 43.1 14.5 46.6 14.8 48.7 14.9 49.6 15.2 50.3 15.7 51H6.8C6.2 51 5.8 51.5 5.8 52 5.8 52.6 6.3 53 6.8 53H94.4C95 53 95.4 52.5 95.4 52 95.5 51.5 95.1 51 94.5 51M28 51H18.3C17.6 50.5 16.8 49.7 16.6 48.4 16.3 46.2 17.6 43.4 20.4 40.3L23.1 44.3 21.6 38.5C21.5 37.9 21.4 37.4 21.4 36.8 21.4 33.1 24.4 30.1 28.1 30.1 29.6 30.1 32.1 31.6 33 32.2L33.1 32.3H33.2C39.5 34.6 46.9 35.4 51.3 35.4 56 35.4 68.8 32.4 69.3 32.3L69.6 32.2 69.8 32C71.1 30.7 72.8 30 74.6 30 78.3 30 81.3 33 81.3 36.7 81.3 37.3 81.2 37.9 81.1 38.4L79.6 44.2 82.3 40.2C85.1 43.3 86.4 46.1 86.1 48.3 85.9 49.6 85.1 50.5 84.4 50.9H28z" fill="#000000" data-fill-palette-color="accent"></path><path d="M74.2 57.8H65.6C65 57.8 64.6 58.3 64.6 58.8S65.1 59.8 65.6 59.8H74.2C74.8 59.8 75.2 59.3 75.2 58.8S74.8 57.8 74.2 57.8" fill="#000000" data-fill-palette-color="accent"></path><path d="M48.2 39.3H54.4C55 39.3 55.4 38.8 55.4 38.3 55.4 37.7 54.9 37.3 54.4 37.3H48.2C47.6 37.3 47.2 37.8 47.2 38.3S47.6 39.3 48.2 39.3" fill="#000000" data-fill-palette-color="accent"></path><path d="M52.6 41H50C49.4 41 49 41.5 49 42 49 42.6 49.5 43 50 43H52.6C53.2 43 53.6 42.5 53.6 42S53.1 41 52.6 41" fill="#000000" data-fill-palette-color="accent"></path><path d="M42.8 59.8C43.4 59.8 43.8 59.3 43.8 58.8S43.3 57.8 42.8 57.8H28C27.4 57.8 27 58.3 27 58.8S27.5 59.8 28 59.8z" fill="#000000" data-fill-palette-color="accent"></path><path d="M21.2 63.2H16.3C15.7 63.2 15.3 63.7 15.3 64.2 15.3 64.8 15.8 65.2 16.3 65.2H21.2C21.8 65.2 22.2 64.7 22.2 64.2S21.8 63.2 21.2 63.2" fill="#000000" data-fill-palette-color="accent"></path><path d="M88.2 63.2H83.3C82.7 63.2 82.3 63.7 82.3 64.2 82.3 64.8 82.8 65.2 83.3 65.2H88.2C88.8 65.2 89.2 64.7 89.2 64.2S88.8 63.2 88.2 63.2" fill="#000000" data-fill-palette-color="accent"></path><path d="M86.7 69.7H77.2C76.6 69.7 76.2 70.2 76.2 70.7 76.2 71.3 76.7 71.7 77.2 71.7H86.7C87.3 71.7 87.7 71.2 87.7 70.7 87.7 70.1 87.3 69.7 86.7 69.7" fill="#000000" data-fill-palette-color="accent"></path><path d="M65.1 69.7H61.9C61.4 66.7 58.8 64.4 55.6 64.4H46.9C43.7 64.4 41.1 66.7 40.6 69.7H25C24.4 69.7 24 70.2 24 70.7 24 71.3 24.5 71.7 25 71.7H65.1C65.7 71.7 66.1 71.2 66.1 70.7 66.1 70.1 65.6 69.7 65.1 69.7M46.9 66.3H55.6C57.6 66.3 59.4 67.7 59.8 69.6H56.7C56.7 69 56.2 68.6 55.7 68.6H54.6C54 68.6 53.6 69 53.6 69.6H49C49 69 48.5 68.6 48 68.6H46.9C46.3 68.6 45.9 69 45.9 69.6H42.7C43.2 67.8 44.9 66.3 46.9 66.3" fill="#000000" data-fill-palette-color="accent"></path><path d="M41.4 47C42.2 46.5 42.5 45.7 42.4 44.8 42.2 43.9 41.5 43.3 40.6 43.1 36.9 42.6 35.7 41 34.4 39.4 33.3 38 32.1 36.5 29.6 35.8H29.1C27.7 35.7 24.8 36 24.8 36.5 24.8 36.8 26 37.1 27.1 37.4V37.5C26.7 39.5 26.3 44.5 31.3 47.6 32.8 48.5 34.3 48.9 36 48.9 37.6 48.7 39.5 48.1 41.4 47M32.1 45.7C28.3 43.4 28.4 39.7 28.8 37.8 28.8 37.8 28.8 37.7 28.9 37.7H29C30.9 38.3 31.8 39.4 32.8 40.6 34.2 42.4 35.9 44.4 40.3 45.1 40.3 45.1 40.4 45.1 40.4 45.2V45.3C38.3 46.5 35.2 47.6 32.1 45.7" fill="#000000" data-fill-palette-color="accent"></path><path d="M61.2 47C63.1 48.2 65 48.8 66.9 48.8 68.5 48.8 70.1 48.4 71.6 47.5 76.6 44.4 76.2 39.4 75.8 37.4 75.8 37.3 75.7 37.2 75.7 37.1 76.9 36.7 78 36.4 78 36.4 78 35.9 75.1 35.7 73.7 35.7H73.2C70.7 36.4 69.5 37.9 68.4 39.3 67.1 40.9 65.8 42.5 62.2 43 61.3 43.1 60.6 43.8 60.4 44.7 60 45.6 60.4 46.5 61.2 47M62.3 45C66.7 44.3 68.4 42.3 69.8 40.5 70.8 39.2 71.7 38.1 73.6 37.6H73.7L73.8 37.7C74.2 39.7 74.3 43.3 70.5 45.6 67.4 47.5 64.3 46.4 62.3 45.2 62.3 45.2 62.2 45.2 62.3 45.1 62.2 45.1 62.3 45 62.3 45" fill="#000000" data-fill-palette-color="accent"></path></g></svg></g><g transform="matrix(1,0,0,1,276.8560364407206,11.716999999999995)"><svg width="162.95000000000002" viewBox="-1.2 -36.55 162.92999999999998 38" height="38.00000000000001" data-palette-color="#d5b263"><path d="M5.4-35.6L5.4-35.6 12.6-35.2Q17.4-35.2 19.5-36.35L19.5-36.35Q19.8-36.55 20.03-36.55 20.25-36.55 20.25-35.85 20.25-35.15 19.4-33.55L19.4-33.55Q18.15-31.1 15.8-31.1L15.8-31.1 13.05-31.15Q12.65-31.15 12.55-30.7L12.55-30.7Q12.2-23.35 12.2-14.83 12.2-6.3 12.9-2L12.9-2 12.9-1.75Q12.9-0.5 10.53 0.25 8.15 1 6.05 1L6.05 1Q5.05 1 5.05 0.45L5.05 0.45Q5.05 0.3 5.2-0.25L5.2-0.25Q5.75-1.35 6.18-10.9 6.6-20.45 6.6-25.3L6.6-25.3 6.5-30.75Q6.5-31.05 6.2-31.1L6.2-31.1Q5.15-31.3 3.8-31.3L3.8-31.3Q1.1-31.3-0.2-30.2L-0.2-30.2Q-0.55-29.95-0.88-29.95-1.2-29.95-1.2-30.35L-1.2-30.35Q-1.2-30.95-0.58-32 0.05-33.05 0.75-33.8L0.75-33.8Q2.45-35.6 5.4-35.6ZM26.4-26.85L26.4-26.85 26.35-22Q26.35-21.7 26.55-21.7 26.75-21.7 26.95-21.85L26.95-21.85Q28.2-22.7 30.9-22.7L30.9-22.7Q35.45-22.7 37.2-19.6L37.2-19.6Q37.85-18.45 37.85-16.55 37.85-14.65 37.62-11.3 37.4-7.95 37.4-6.55L37.4-6.55Q37.4-1.65 38.8-0.05L38.8-0.05Q39.05 0.2 39.05 0.45L39.05 0.45Q39.05 0.95 36.9 0.95L36.9 0.95Q31.1 0.95 31.1-4.45L31.1-4.45Q31.1-6.55 32.1-10.35 33.1-14.15 33.1-15.95 33.1-17.75 32.25-18.73 31.4-19.7 29.9-19.7 28.4-19.7 27.52-19.05 26.65-18.4 26.45-17.7L26.45-17.7 26.3-17.05Q26.25-16.1 26.25-11 26.25-5.9 26.5-4.38 26.75-2.85 26.75-2.65L26.75-2.65Q26.75-1.2 24.8-0.08 22.85 1.05 20.95 1.05L20.95 1.05Q20.25 1.05 20.25 0.25L20.25 0.25 20.35-0.7Q21.45-9.1 21.45-18.9L21.45-18.9Q21.45-22.7 21.15-26.6L21.15-26.6 21.1-27.7Q21-29.1 20.52-30.1 20.05-31.1 19.65-31.4L19.65-31.4 19.2-31.65Q18.85-31.85 18.85-32.1L18.85-32.1Q18.85-32.8 21.2-33.83 23.55-34.85 24.82-34.85 26.1-34.85 26.2-34.3L26.2-34.3Q26.4-31.75 26.4-26.85ZM45.3-12.7L45.3-12.7 45.34-11.45Q45.34-11.15 45.75-11.15L45.75-11.15Q47.34-11.3 48.55-11.98 49.75-12.65 50.34-13.5L50.34-13.5Q51.55-15.35 51.65-16.7L51.65-16.7 51.7-17.3Q51.7-20 49.55-20L49.55-20Q47.95-20 46.95-18.6L46.95-18.6Q45.3-16.4 45.3-12.7ZM56.2-6.05L56.2-6.05Q56.2-4.15 55.42-2.73 54.65-1.3 53.67-0.63 52.7 0.05 51.4 0.45L51.4 0.45Q49.75 0.95 48.25 0.95L48.25 0.95Q44.05 0.95 42.05-2.2 40.05-5.35 40.05-10.23 40.05-15.1 42.52-18.9 45-22.7 49.95-22.7L49.95-22.7Q54.45-22.7 56.05-19.55L56.05-19.55Q56.7-18.35 56.7-17.28 56.7-16.2 56.59-15.58 56.5-14.95 55.9-13.7 55.3-12.45 54.3-11.45 53.3-10.45 51.15-9.55 49-8.65 46.09-8.35L46.09-8.35Q45.7-8.35 45.7-8L45.7-8Q45.7-7.55 46.02-6.68 46.34-5.8 46.75-5.2L46.75-5.2Q47.84-3.8 50-3.8L50-3.8Q52.15-3.8 53.65-5.2L53.65-5.2Q54.45-5.95 54.95-7.05L54.95-7.05Q55.15-7.45 55.47-7.45 55.8-7.45 56-6.9 56.2-6.35 56.2-6.05ZM85.39-9.95L85.29-14.7Q85.29-15.85 83.89-15.95L83.89-15.95 80.34-15.95Q79.94-15.95 79.94-16.2L79.94-16.2Q80.24-17.65 80.99-18.53 81.74-19.4 82.24-19.5L82.24-19.5Q83.64-19.7 86.84-19.7 90.04-19.7 90.84-19.68 91.64-19.65 91.84-19.5L91.84-19.5Q92.04-19.25 92.04-18.93 92.04-18.6 91.87-14.78 91.69-10.95 91.69-7.93 91.69-4.9 91.89-4.13 92.09-3.35 92.09-3.15L92.09-3.15Q92.09-2.35 90.69-1.43 89.29-0.5 86.47 0.2 83.64 0.9 80.24 0.9L80.24 0.9Q75.69 0.9 72.34-2.25L72.34-2.25Q69.74-4.75 68.77-7.7 67.79-10.65 67.79-16L67.79-16Q67.79-35.85 82.34-35.85L82.34-35.85Q84.79-35.85 86.74-35.33 88.69-34.8 90.17-33.27 91.64-31.75 91.64-29.35L91.64-29.35Q91.64-28.1 91.14-26.8L91.14-26.8Q90.24-24.15 87.14-24.15L87.14-24.15Q85.44-24.15 84.57-25.03 83.69-25.9 83.69-27.45L83.69-27.45Q83.69-28.05 84.34-28.2L84.34-28.2Q85.29-28.75 85.29-30.08 85.29-31.4 84.29-32.13 83.29-32.85 82.19-32.85L82.19-32.85Q79.79-32.85 78.14-31.13 76.49-29.4 75.74-26.6L75.74-26.6Q74.49-21.6 74.49-16.4L74.49-16.4Q74.49-7.9 78.64-5.1L78.64-5.1Q80.19-4 81.89-4L81.89-4Q85.04-4 85.24-5.15L85.24-5.15Q85.39-6.7 85.39-9.95L85.39-9.95ZM111.49-15L111.49-15 111.39-8.6Q111.39-1.95 112.84-0.6L112.84-0.6Q113.04-0.4 113.04-0.15L113.04-0.15Q113.04 0.6 109.81 0.6 106.59 0.6 106.39-1.3L106.39-1.3Q106.34-1.75 106.34-3.15L106.34-3.15 106.54-11.15Q106.54-11.5 106.14-11.5L106.14-11.5Q103.74-11.5 101.64-10.15 99.54-8.8 99.54-6.7L99.54-6.7Q99.54-5.6 100.14-4.85 100.74-4.1 101.61-4.1 102.49-4.1 103.06-4.45 103.64-4.8 103.74-4.85L103.74-4.85Q104.59-4.75 104.59-3.08 104.59-1.4 103.04-0.38 101.49 0.65 99.79 0.65 98.09 0.65 96.86 0.05 95.64-0.55 95.09-1.3 94.54-2.05 94.19-3L94.19-3Q93.84-4.15 93.84-5L93.84-5Q93.84-8.5 96.04-10.6 98.24-12.7 101.69-13.6L101.69-13.6Q106.24-14.5 106.44-15.25L106.44-15.25Q106.59-15.8 106.59-17.1L106.59-17.1Q106.59-19.75 103.89-19.75L103.89-19.75Q102.74-19.75 101.84-19.03 100.94-18.3 100.94-17.2L100.94-17.2 101.24-16Q101.14-15.15 99.44-15L99.44-15 98.89-14.95Q97.39-14.95 96.51-15.7 95.64-16.45 95.64-17.7L95.64-17.7Q95.64-18.5 96.16-19.48 96.69-20.45 97.49-21.05 98.29-21.65 99.96-22.13 101.64-22.6 103.19-22.6 104.74-22.6 105.59-22.5 106.44-22.4 107.91-22.03 109.39-21.65 110.36-20.6 111.34-19.55 111.41-18.38 111.49-17.2 111.49-15ZM113.79-19.5L113.79-19.5 113.94-21.5Q113.99-21.95 114.64-21.95L114.64-21.95 116.39-21.95 116.19-25.95 116.19-26.15Q116.19-27.3 117.94-28.35 119.69-29.4 121.14-29.4L121.14-29.4Q121.59-29.4 121.59-29L121.59-29 121.59-28.95Q121.39-27.6 121.19-22L121.19-22Q123.39-22 123.99-22.1 124.59-22.2 124.64-22.2L124.64-22.2Q124.99-22.2 124.99-21.6 124.99-21 124.44-20.08 123.89-19.15 123.24-19.1L123.24-19.1 121.14-19.1Q121.09-17.4 121.09-13.38 121.09-9.35 121.16-6.75 121.24-4.15 121.34-2.83 121.44-1.5 121.56-0.7 121.69 0.1 121.76 0.45 121.84 0.8 121.84 0.9L121.84 0.9Q121.84 1.4 121.19 1.45L121.19 1.45Q119.24 1.45 117.31 0.9 115.39 0.35 115.39-1L115.39-1Q116.44-9.4 116.44-19.05L116.44-19.05Q115.09-19.05 114.39-18.95L114.39-18.95 114.34-18.95Q113.89-18.95 113.79-19.5ZM130.63-18.85L130.63-18.85Q129.33-18.8 128.76-18.78 128.18-18.75 128.18-19.05 128.18-19.35 128.48-19.65L128.48-19.65Q131.68-22.6 139.28-22.6L139.28-22.6Q141.88-22.6 143.38-22.15L143.38-22.15 143.88-22Q144.48-21.75 144.48-21.45L144.48-21.45Q144.48-21.2 144.13-21.05L144.13-21.05Q142.78-20.65 141.53-19.78 140.28-18.9 140.28-18.55L140.28-18.55 140.58-18.2Q142.18-17.3 143.06-15.35 143.93-13.4 144.03-11.9L144.03-11.9 144.13-10.35Q144.13-5.4 141.38-2.2 138.63 1 133.88 1L133.88 1Q131.48 1 129.73 0.15 127.98-0.7 127.16-1.78 126.33-2.85 125.83-4.2L125.83-4.2Q125.23-6.05 125.23-8.03 125.23-10 125.91-12 126.58-14 127.46-14.95 128.33-15.9 129.43-16.5L129.43-16.5Q130.83-17.25 131.68-17.25 132.53-17.25 132.53-16.9L132.53-16.9 132.23-16.4Q131.13-15.1 130.66-13 130.18-10.9 130.18-9.28 130.18-7.65 130.58-6.05 130.98-4.45 131.48-3.68 131.98-2.9 132.63-2.5L132.63-2.5Q133.58-1.9 134.63-1.9 135.68-1.9 136.68-2.73 137.68-3.55 138.13-4.9L138.13-4.9Q139.03-7.4 139.03-10.05L139.03-10.05Q139.03-14.25 136.91-16.55 134.78-18.85 130.63-18.85ZM161.73-17.2L161.48-13.4 161.68-11.65Q161.68-10.7 159.88-10.7L159.88-10.7Q156.23-10.7 156.23-13.45L156.23-13.45Q156.23-14.1 156.58-15.25 156.93-16.4 156.93-17.25 156.93-18.1 156.43-18.73 155.93-19.35 154.98-19.35 154.03-19.35 153.36-18.68 152.68-18 152.53-17.3L152.53-17.3 152.33-16.6Q152.03-15.05 152.03-11.43 152.03-7.8 152.13-5.73 152.23-3.65 152.33-2.88 152.43-2.1 152.43-1.95L152.43-1.95Q152.43-0.7 150.88 0.08 149.33 0.85 147.78 0.85 146.23 0.85 146.23 0.2L146.23 0.2 146.48-1.35Q147.18-5.7 147.18-12.7 147.18-19.7 146.68-22.2L146.68-22.2Q146.68-22.8 147.73-22.8L147.73-22.8Q150.43-22.8 151.33-20.95L151.33-20.95Q151.38-20.75 151.51-20.75 151.63-20.75 152.18-21.2L152.18-21.2Q153.83-22.55 156.08-22.55L156.08-22.55Q157.48-22.55 158.88-22L158.88-22Q161.73-20.85 161.73-17.2L161.73-17.2Z" opacity="1" transform="matrix(1,0,0,1,0,0)" fill="#d5b263" class="undefined-tk-1"></path></svg></g></svg></g></svg></g></svg></g></svg></g><g></g></svg></g><defs></defs></svg><rect width="395.52" height="55.292901108868094" fill="none" stroke="none" visibility="hidden"></rect></g></svg></g></svg>